{
  "accessors": [
    {
      "bufferView": 2,
      "componentType": 5126,
      "count": 19416,
      "max": [
        0.0009166670497506857,
        0.09362120181322098,
        0.01843241974711418
      ],
      "min": [
        -0.0009166670497506857,
        -0.006378816440701485,
        -0.01843241974711418
      ],
      "type": "VEC3"
    },
    {
      "bufferView": 2,
      "byteOffset": 232992,
      "componentType": 5126,
      "count": 19416,
      "max": [
        0.9965816140174866,
        1.0,
        0.9964977502822876
      ],
      "min": [
        -0.9965817332267761,
        -1.0,
        -0.9964978098869324
      ],
      "type": "VEC3"
    },
    {
      "bufferView": 1,
      "componentType": 5126,
      "count": 19416,
      "max": [
        0.8750001192092896,
        1.0000001192092896
      ],
      "min": [
        0.1250000149011612,
        0.0
      ],
      "type": "VEC2"
    },
    {
      "bufferView": 0,
      "componentType": 5125,
      "count": 29184,
      "type": "SCALAR"
    },
    {
      "bufferView": 2,
      "byteOffset": 465984,
      "componentType": 5126,
      "count": 7166,
      "max": [
        0.050743330270051956,
        0.15491726994514465,
        0.05074333772063255
      ],
      "min": [
        -0.05074333772063255,
        -0.00013800710439682007,
        -0.050743330270051956
      ],
      "type": "VEC3"
    },
    {
      "bufferView": 2,
      "byteOffset": 551976,
      "componentType": 5126,
      "count": 7166,
      "max": [
        0.999909520149231,
        1.0,
        0.999909520149231
      ],
      "min": [
        -0.999909520149231,
        -1.0,
        -0.999909520149231
      ],
      "type": "VEC3"
    },
    {
      "bufferView": 1,
      "byteOffset": 155328,
      "componentType": 5126,
      "count": 7166,
      "max": [
        0.8750001192092896,
        1.0000001192092896
      ],
      "min": [
        0.1354166865348816,
        0.0
      ],
      "type": "VEC2"
    },
    {
      "bufferView": 0,
      "byteOffset": 116736,
      "componentType": 5125,
      "count": 40320,
      "type": "SCALAR"
    },
    {
      "bufferView": 2,
      "byteOffset": 637968,
      "componentType": 5126,
      "count": 65532,
      "max": [
        0.026562005281448364,
        0.005364894866943359,
        0.026562003418803215
      ],
      "min": [
        -0.026562003418803215,
        -0.054472923278808594,
        -0.026562005281448364
      ],
      "type": "VEC3"
    },
    {
      "bufferView": 2,
      "byteOffset": 1424352,
      "componentType": 5126,
      "count": 65532,
      "max": [
        1.0,
        1.0,
        1.0
      ],
      "min": [
        -1.0,
        -1.0,
        -1.0
      ],
      "type": "VEC3"
    },
    {
      "bufferView": 1,
      "byteOffset": 212656,
      "componentType": 5126,
      "count": 65532,
      "max": [
        2.767465829849243,
        1.0000001192092896
      ],
      "min": [
        0.0,
        -0.009225239977240562
      ],
      "type": "VEC2"
    },
    {
      "bufferView": 0,
      "byteOffset": 278016,
      "componentType": 5125,
      "count": 106950,
      "type": "SCALAR"
    },
    {
      "bufferView": 2,
      "byteOffset": 2210736,
      "componentType": 5126,
      "count": 3144,
      "max": [
        0.003039794974029064,
        -0.0514523983001709,
        0.0096907252445817
      ],
      "min": [
        -0.009690726175904274,
        -0.05440878868103027,
        -0.006329707335680723
      ],
      "type": "VEC3"
    },
    {
      "bufferView": 2,
      "byteOffset": 2248464,
      "componentType": 5126,
      "count": 3144,
      "max": [
        0.11123095452785492,
        -0.892656683921814,
        0.4507083594799042
      ],
      "min": [
        -0.4507081210613251,
        -0.9291252493858337,
        -0.3066761791706085
      ],
      "type": "VEC3"
    },
    {
      "bufferView": 1,
      "byteOffset": 736912,
      "componentType": 5126,
      "count": 3144,
      "max": [
        0.7779539823532104,
        0.3082083463668823
      ],
      "min": [
        0.6608833074569702,
        0.16088347136974335
      ],
      "type": "VEC2"
    },
    {
      "bufferView": 0,
      "byteOffset": 705816,
      "componentType": 5125,
      "count": 4716,
      "type": "SCALAR"
    },
    {
      "bufferView": 2,
      "byteOffset": 2286192,
      "componentType": 5126,
      "count": 678,
      "max": [
        0.003000000724568963,
        0.09874404221773148,
        0.018417974933981895
      ],
      "min": [
        -0.003000000724568963,
        0.09155308455228806,
        -0.01831408403813839
      ],
      "type": "VEC3"
    },
    {
      "bufferView": 2,
      "byteOffset": 2294328,
      "componentType": 5126,
      "count": 678,
      "max": [
        1.0,
        1.0,
        0.8677456974983215
      ],
      "min": [
        -1.0,
        -1.0,
        -0.8677456974983215
      ],
      "type": "VEC3"
    },
    {
      "bufferView": 1,
      "byteOffset": 762064,
      "componentType": 5126,
      "count": 678,
      "max": [
        7.0,
        0.008660254068672657
      ],
      "min": [
        0.0,
        -0.008660254068672657
      ],
      "type": "VEC2"
    },
    {
      "bufferView": 0,
      "byteOffset": 724680,
      "componentType": 5125,
      "count": 4032,
      "type": "SCALAR"
    }
  ],
  "asset": {
    "extras": {
      "author": "rlaine (https://sketchfab.com/rlaine)",
      "license": "CC-BY-4.0 (http://creativecommons.org/licenses/by/4.0/)",
      "source": "https://sketchfab.com/3d-models/the-bulb-cdfd1fc6e9da4c5f894cda3c5eb3955d",
      "title": "The Bulb"
    },
    "generator": "Sketchfab-12.66.0",
    "version": "2.0"
  },
  "bufferViews": [
    {
      "buffer": 0,
      "byteLength": 740808,
      "name": "floatBufferViews",
      "target": 34963
    },
    {
      "buffer": 0,
      "byteLength": 767488,
      "byteOffset": 740808,
      "byteStride": 8,
      "name": "floatBufferViews",
      "target": 34962
    },
    {
      "buffer": 0,
      "byteLength": 2302464,
      "byteOffset": 1508296,
      "byteStride": 12,
      "name": "floatBufferViews",
      "target": 34962
    }
  ],
  "buffers": [
    {
      "byteLength": 3810760,
      "uri": "scene.bin"
    }
  ],
  "materials": [
    {
      "doubleSided": true,
      "name": "Rough_Metal",
      "pbrMetallicRoughness": {
        "baseColorFactor": [
          0.8,
          0.8,
          0.8,
          1.0
        ],
        "roughnessFactor": 0.5
      }
    },
    {
      "doubleSided": true,
      "name": "Glass",
      "pbrMetallicRoughness": {
        "baseColorFactor": [
          0.0,
          0.0,
          0.0,
          1.0
        ],
        "metallicFactor": 0.0,
        "roughnessFactor": 0.0
      }
    },
    {
      "doubleSided": true,
      "name": "Smooth_Metal",
      "pbrMetallicRoughness": {
        "baseColorFactor": [
          0.8,
          0.8,
          0.8,
          1.0
        ],
        "roughnessFactor": 0.3
      }
    },
    {
      "doubleSided": true,
      "emissiveFactor": [
        1.0,
        0.7690250000000001,
        0.20538399999999998
      ],
      "name": "Light"
    }
  ],
  "meshes": [
    {
      "name": "Object_0",
      "primitives": [
        {
          "attributes": {
            "NORMAL": 1,
            "POSITION": 0,
            "TEXCOORD_0": 2
          },
          "indices": 3,
          "material": 0,
          "mode": 4
        }
      ]
    },
    {
      "name": "Object_1",
      "primitives": [
        {
          "attributes": {
            "NORMAL": 5,
            "POSITION": 4,
            "TEXCOORD_0": 6
          },
          "indices": 7,
          "material": 1,
          "mode": 4
        }
      ]
    },
    {
      "name": "Object_2",
      "primitives": [
        {
          "attributes": {
            "NORMAL": 9,
            "POSITION": 8,
            "TEXCOORD_0": 10
          },
          "indices": 11,
          "material": 2,
          "mode": 4
        }
      ]
    },
    {
      "name": "Object_3",
      "primitives": [
        {
          "attributes": {
            "NORMAL": 13,
            "POSITION": 12,
            "TEXCOORD_0": 14
          },
          "indices": 15,
          "material": 2,
          "mode": 4
        }
      ]
    },
    {
      "name": "Object_4",
      "primitives": [
        {
          "attributes": {
            "NORMAL": 17,
            "POSITION": 16,
            "TEXCOORD_0": 18
          },
          "indices": 19,
          "material": 3,
          "mode": 4
        }
      ]
    }
  ],
  "nodes": [
    {
      "children": [
        1
      ],
      "matrix": [
        11.98644733428955,
        0.0,
        0.0,
        0.0,
        0.0,
        2.661525962797018e-15,
        -11.98644733428955,
        0.0,
        0.0,
        11.98644733428955,
        2.661525962797018e-15,
        0.0,
        0.0,
        0.0,
        0.0,
        1.0
      ],
      "name": "Sketchfab_model"
    },
    {
      "children": [
        2
      ],
      "name": "root"
    },
    {
      "children": [
        3
      ],
      "matrix": [
        1.0,
        0.0,
        0.0,
        0.0,
        0.0,
        2.220446049250313e-16,
        1.0,
        0.0,
        0.0,
        -1.0,
        2.220446049250313e-16,
        0.0,
        0.0,
        0.0,
        0.0,
        1.0
      ],
      "name": "GLTF_SceneRootNode"
    },
    {
      "children": [
        4,
        5,
        6,
        7,
        8
      ],
      "matrix": [
        0.0,
        0.0,
        1.0,
        0.0,
        -0.0,
        0.8343818187713623,
        0.0,
        0.0,
        -1.0,
        0.0,
        0.0,
        0.0,
        0.0,
        1.8946900367736816,
        0.0,
        1.0
      ],
      "name": "Bulb_0"
    },
    {
      "mesh": 0,
      "name": "Object_4"
    },
    {
      "mesh": 1,
      "name": "Object_5"
    },
    {
      "mesh": 2,
      "name": "Object_6"
    },
    {
      "mesh": 3,
      "name": "Object_7"
    },
    {
      "mesh": 4,
      "name": "Object_8"
    }
  ],
  "scene": 0,
  "scenes": [
    {
      "name": "Sketchfab_Scene",
      "nodes": [
        0
      ]
    }
  ]
}
